<svg viewBox="0 0 512 512.00002" xmlns="http://www.w3.org/2000/svg"><path d="m512 256.007812c0-141.382812-114.613281-255.9960932-256-255.9960932s-256 114.6132812-256 255.9960932c0 141.378907 114.613281 255.992188 256 255.992188s256-114.613281 256-255.992188zm0 0" fill="#84665c"/><path d="m288.738281 195.5625c4.121094 18.238281 9.410157 31.121094 8.015625 60.445312-1.980468 41.632813-9.6875 64.066407-17.882812 89.128907 11.601562-4.390625 64.351562-32.382813 64.351562-67.878907 0-35.5-29.621094-62.78125-54.484375-81.695312zm0 0" fill="#70554c"/><path d="m256 .0117188c-15.8125 0-31.285156 1.4414062-46.304688 4.1875002 119.28125 21.792969 209.695313 126.234375 209.695313 251.808593 0 125.570313-90.414063 230.011719-209.695313 251.804688 15.019532 2.742188 30.492188 4.1875 46.304688 4.1875 141.386719 0 256-114.613281 256-255.992188 0-141.382812-114.613281-255.9960932-256-255.9960932zm0 0" fill="#70554c"/><path d="m512 256.007812c0 141.386719-114.597656 255.980469-255.988281 255.980469-21.816407 0-43.023438-2.71875-63.246094-7.855469 187.582031-8.867187 280.832031-150.207031 250.992187-287.910156-17.007812-77.792968-76.828124-134.070312-154.621093-148.660156-75.375-12.152344-148.589844 18.367188-185.65625 91.394531-19.683594 38.753907-21.867188 82.644531-4.859375 123.957031 19.449218 43.75 58.34375 75.347657 106.953125 80.230469 58.34375 4.855469 121.542969-36.480469 119.125-99.679687-2.4375-26.742188-14.589844-53.460938-38.894531-68.054688-21.886719-12.148437-52.585938-12.734375-72.035157 4.273438-29.703125 30.390625.6875 62.152344 21.902344 46.609375 6.523437-6.425781 16.515625-5.816407 23.152344 3.261719 9.949219 16.351562 2.675781 40.65625-14.355469 50.390624-17.007812 7.273438-36.457031 9.710938-53.464844 2.414063-41.332031-19.445313-58.34375-72.910156-41.332031-114.242187 19.445313-43.75 70.492187-70.496094 119.101563-65.636719 38.894531 4.878906 70.496093 24.300781 94.824218 55.925781 29.160156 41.308594 34.015625 87.5 21.863282 133.691406-29.160157 97.234375-143.40625 143.402344-235.789063 109.386719-102.097656-34.039063-150.703125-148.285156-123.984375-247.960937 12.058594-44.171876 35.730469-81.726563 65.945312-113.773438 44.476563-37.300781 101.8125-59.75 164.378907-59.75 141.390625 0 255.988281 114.621094 255.988281 256.007812zm0 0" fill="#fece9d"/><g fill="#edb882"><path d="m244.46875 299.945312c17.035156-9.734374 24.304688-34.039062 14.359375-50.390624-6.640625-9.078126-16.632813-9.6875-23.15625-3.257813-2.242187 1.640625-4.589844 2.75-6.957031 3.394531 9.824218 16.347656 2.550781 40.542969-14.433594 50.253906-5 2.136719-10.214844 3.84375-15.515625 5.023438 15 3.828125 31.230469 1.164062 45.703125-5.023438zm0 0"/><path d="m385.460938 312.097656c12.152343-46.191406 7.296874-92.382812-21.863282-133.695312-24.328125-31.621094-55.929687-51.042969-94.824218-55.925782-8.960938-.894531-18-.707031-26.914063.453126 37.398437 5.539062 67.90625 24.746093 91.546875 55.472656 29.160156 41.3125 34.015625 87.503906 21.863281 133.695312-21.195312 70.683594-87.359375 114.367188-157.398437 119.894532 80.371094 6.433593 163.359375-39.09375 187.589844-119.894532zm0 0"/><path d="m73.289062 158.957031c-19.679687 38.753907-21.863281 82.644531-4.855468 123.957031 19.449218 43.75 58.34375 75.347657 106.953125 80.226563 8.269531.6875 16.636719.449219 24.902343-.652344-46.136718-6.5625-82.929687-37.421875-101.667968-79.574219-17.007813-41.3125-14.824219-85.203124 4.859375-123.957031 29.265625-57.667969 81.082031-88.820312 138.695312-93.394531-69.296875-5.371094-134.578125 25.800781-168.886719 93.394531zm0 0"/><path d="m256.011719 0c-5.070313 0-10.105469.164062-15.105469.453125 134.363281 7.808594 240.90625 119.230469 240.90625 255.554687 0 136.351563-106.589844 247.769532-240.996094 255.53125 5.027344.296876 10.09375.449219 15.195313.449219 141.390625 0 255.988281-114.59375 255.988281-255.980469 0-141.386718-114.597656-256.007812-255.988281-256.007812zm0 0"/></g></svg>